{
	"asset":{
		"version":"2.0",
		"generator":"Created using the official Cinema 4D glTF Exporter 1.000x284978"
	},
	"scenes":[{
		"nodes":[0]
	}],
	"nodes":[{
		"name":"돌출.1",
		"translation":[-29.797683715820314,
		12.977362632751465,
		98.10651397705078],
		"rotation":[-0.08198823034763336,
		0.2952871322631836,
		0.14161066710948945,
		0.9412915706634522],
		"children":[1],
		"scale":[1.0,
		1.0,
		1.0]
	},
	{
		"name":"TextB",
		"mesh":0
	}],
	"meshes":[{
		"name":"돌출.1",
		"primitives":[{
			"attributes":{
				"POSITION":1,
				"TEXCOORD_0":2
			},
			"indices":0,
			"material":0
		}]
	}],
	"accessors":[{
		"bufferView":0,
		"type":"SCALAR",
		"componentType":5123,
		"count":2148,
		"min":[0],
		"byteOffset":0,
		"max":[717]
	},
	{
		"bufferView":1,
		"type":"VEC3",
		"componentType":5126,
		"count":718,
		"min":[48.038639068603519,
		-5.684341886080802e-14,
		0.0],
		"byteOffset":0,
		"max":[338.4791259765625,
		386.51776123046877,
		66.26019287109375]
	},
	{
		"bufferView":1,
		"type":"VEC2",
		"componentType":5126,
		"count":718,
		"min":[0.0,
		0.0],
		"byteOffset":12,
		"max":[1.0,
		1.0]
	}],
	"bufferViews":[{
		"target":34963,
		"buffer":0,
		"byteOffset":0,
		"byteLength":4296
	},
	{
		"target":34962,
		"buffer":0,
		"byteOffset":4296,
		"byteLength":14360,
		"byteStride":20
	}],
	"buffers":[{
		"uri":"data:application/octet-stream;base64,",
		"byteLength":18656
	}],
	"materials":[{
		"pbrMetallicRoughness":{
			"baseColorFactor":[1.0,
			1.0,
			1.0,
			0.0],
			"metallicFactor":0.0,
			"roughnessFactor":0.5
		},
		"emissiveFactor":[0.0,
		0.0,
		0.0],
		"alphaMode":"BLEND",
		"doubleSided":false,
		"name":"material"
	}]
}