{
	"asset":{
		"version":"2.0",
		"generator":"Created using the official Cinema 4D glTF Exporter 1.000x284978"
	},
	"scenes":[{
		"nodes":[0]
	}],
	"nodes":[{
		"name":"서페이스 분할",
		"translation":[-143.7699432373047,
		141.17214965820313,
		22.75075912475586],
		"rotation":[0.0,
		0.0,
		0.0,
		-1.0],
		"scale":[1.0,
		1.0,
		1.0],
		"children":[1]
	},
	{
		"mesh":0,
		"name":"Cube"
	}],
	"meshes":[{
		"name":"큐브.2",
		"primitives":[{
			"attributes":{
				"POSITION":1,
				"NORMAL":2,
				"TEXCOORD_0":3
			},
			"indices":0,
			"material":0
		}]
	}],
	"accessors":[{
		"bufferView":0,
		"componentType":5123,
		"type":"SCALAR",
		"count":30912,
		"byteOffset":0,
		"min":[0],
		"max":[5493]
	},
	{
		"bufferView":1,
		"componentType":5126,
		"type":"VEC3",
		"count":5494,
		"byteOffset":0,
		"min":[-146.03512573242188,
		-146.03512573242188,
		-146.03512573242188],
		"max":[146.03512573242188,
		146.03512573242188,
		146.03512573242188]
	},
	{
		"bufferView":1,
		"componentType":5126,
		"type":"VEC3",
		"count":5494,
		"byteOffset":12,
		"min":[-1.0,
		-1.0,
		-1.0],
		"max":[1.0,
		1.0,
		1.0]
	},
	{
		"bufferView":1,
		"componentType":5126,
		"type":"VEC2",
		"count":5494,
		"byteOffset":24,
		"min":[-0.08491107821464539,
		-0.08491106331348419],
		"max":[1.0849111080169678,
		1.0849111080169678]
	}],
	"bufferViews":[{
		"buffer":0,
		"byteOffset":0,
		"byteLength":61824,
		"target":34963
	},
	{
		"buffer":0,
		"byteOffset":61824,
		"byteLength":175808,
		"target":34962,
		"byteStride":32
	}],
	"buffers":[{
		"uri":"data:application/octet-stream;base64,",
		"byteLength":237632
	}],
	"materials":[{
		"pbrMetallicRoughness":{
			"baseColorFactor":[0.06798561151079137,
			0.06798561151079137,
			0.07,
			1.0],
			"metallicFactor":0.0,
			"roughnessFactor":0.61
		},
		"emissiveFactor":[0.0,
		0.0,
		0.0],
		"alphaMode":"OPAQUE",
		"doubleSided":false,
		"name":"material"
	}]
}